Coordinates
version=1
nRows=16
nColumns=30
inDegrees=yes

Units are S.I. units (second, meters, Newtons, ...)
Angles are in degrees.

endheader
time	floatyaw	floatroll	floatpitch	floatx	floaty	floatz	pro_sup_l	deviation_l	flexion_l	cmc_flexion_l	cmc_abduction_l	mp_flexion_l	ip_flexion_l	2mcp_flexion_l	2mcp_abduction_l	2pm_flexion_l	2md_flexion_l	3mcp_flexion_l	3mcp_abduction_l	3pm_flexion_l	3md_flexion_l	4mcp_flexion_l	4mcp_abduction_l	4pm_flexion_l	4md_flexion_l	5mcp_flexion_l	5mcp_abduction_l	5pm_flexion_l	5md_flexion_l
0.005000	-160.147433	-5.066637	-73.570646	-0.057182	-0.101716	-0.083009	112.636320	36.980370	-12.980481	10.018747	38.669497	-22.980892	-56.930111	29.446742	12.077841	57.106520	48.722243	44.983350	6.485142	56.320719	38.926396	44.682469	-5.558448	58.134201	48.481087	25.834320	-14.146636	71.915439	66.274334
0.015000	-160.147433	-5.066637	-73.570646	-0.057321	-0.098274	-0.082666	111.830655	37.032692	-12.954340	10.053214	38.507692	-23.226192	-56.974504	31.083815	12.308970	56.015350	48.025551	46.347646	6.526978	55.506899	38.570515	46.259431	-5.579791	57.109557	48.337649	27.352448	-14.295010	70.933430	66.516814
0.025000	-160.147433	-5.066637	-73.570646	-0.057459	-0.094413	-0.082353	111.115954	37.168301	-12.998906	10.134467	38.457270	-23.317862	-56.869474	32.934703	12.508101	54.552519	47.210913	47.796307	6.568625	54.440181	38.164047	47.999453	-5.600130	55.733542	48.175335	29.035234	-14.427201	69.697920	66.721546
0.035000	-160.147433	-5.066637	-73.570646	-0.057618	-0.090666	-0.082057	110.450949	37.360349	-13.022336	10.226679	38.520746	-23.377719	-56.766571	34.866749	12.660229	52.969041	46.352507	49.265020	6.596524	53.264167	37.703493	49.823394	-5.628270	54.091012	48.007505	30.766923	-14.514353	68.321802	66.944290
0.045000	-160.147433	-5.066637	-73.570646	-0.057770	-0.087583	-0.081775	109.805894	37.540703	-12.959323	10.284493	38.654927	-23.529680	-56.795510	36.638299	12.748203	51.582938	45.544853	50.611218	6.601786	52.187128	37.226166	51.539221	-5.667629	52.394867	47.867048	32.335012	-14.538025	66.993376	67.217430
0.055000	-160.147433	-5.066637	-73.570646	-0.057853	-0.085539	-0.081525	109.168255	37.628879	-12.790953	10.259361	38.786593	-23.828804	-56.991967	38.001180	12.767960	50.646201	44.867945	51.673644	6.584432	51.394835	36.798137	52.917743	-5.715326	50.908426	47.790406	33.513317	-14.499769	65.904758	67.537158
0.065000	-160.147433	-5.066637	-73.570646	-0.057800	-0.084606	-0.081340	108.542077	37.563216	-12.541450	10.116944	38.843156	-24.226730	-57.275367	38.809520	12.737822	50.247632	44.359327	52.347162	6.553256	50.972821	36.482088	53.794105	-5.764681	49.838990	47.792923	34.157760	-14.421426	65.173884	67.865656
0.075000	-160.147433	-5.066637	-73.570646	-0.057576	-0.084571	-0.081261	107.942895	37.320467	-12.255201	9.852576	38.784634	-24.596847	-57.494311	39.072316	12.693558	50.303463	44.010116	52.627460	6.521252	50.885130	36.306883	54.135034	-5.809142	49.263605	47.856421	34.259730	-14.335054	64.808709	68.149759
0.085000	-160.147433	-5.066637	-73.570646	-0.057194	-0.085046	-0.081323	107.390697	36.917981	-11.968452	9.491592	38.619879	-24.801076	-57.508658	38.927171	12.671692	50.625203	43.781643	52.601714	6.499261	51.012513	36.255915	54.035714	-5.844985	49.121354	47.937596	33.930219	-14.267989	64.727979	68.345053
0.095000	-160.147433	-5.066637	-73.570646	-0.056708	-0.085638	-0.081535	106.902993	36.401893	-11.691378	9.073386	38.396700	-24.755414	-57.253468	38.561800	12.692883	51.012120	43.627330	52.396888	6.491583	51.216243	36.278432	53.657373	-5.871590	49.263601	47.988802	33.332446	-14.232172	64.813582	68.430694
0.105000	-160.147433	-5.066637	-73.570646	-0.056181	-0.086068	-0.081880	106.489756	35.829438	-11.408609	8.630617	38.171062	-24.460104	-56.749678	38.132507	12.755946	51.319334	43.507839	52.119989	6.495668	51.389695	36.315611	53.149475	-5.890051	49.526139	47.976637	32.607507	-14.223485	64.958278	68.408899
0.115000	-160.147433	-5.066637	-73.570646	-0.055656	-0.086226	-0.082312	106.151318	35.252934	-11.095195	8.176836	37.974293	-23.987262	-56.067141	37.719049	12.843783	51.482254	43.396976	51.822873	6.505226	51.479620	36.326425	52.599959	-5.901602	49.786447	47.889798	31.832803	-14.229258	65.089284	68.294739
0.125000	-160.147433	-5.066637	-73.570646	-0.055145	-0.086147	-0.082768	105.879334	34.709702	-10.736756	7.708028	37.797811	-23.442191	-55.273744	37.327721	12.934608	51.504612	43.281440	51.504383	6.514312	51.480367	36.300086	52.031227	-5.906837	49.986777	47.736405	31.025806	-14.237286	65.169998	68.105479
0.135000	-160.147433	-5.066637	-73.570646	-0.054639	-0.085947	-0.083190	105.660129	34.218797	-10.341670	7.214237	37.602032	-22.923424	-54.404816	36.927455	13.010925	51.428696	43.157918	51.139206	6.520025	51.414777	36.251139	51.429793	-5.905799	50.125270	47.535435	30.177127	-14.240812	65.191961	67.854237
0.145000	-160.147433	-5.066637	-73.570646	-0.054125	-0.085747	-0.083544	105.479236	33.782936	-9.939339	6.692416	37.341078	-22.499808	-53.466591	36.490671	13.062937	51.305820	43.029721	50.710366	6.522851	51.314929	36.203721	50.782294	-5.898527	50.230867	47.306914	29.284456	-14.238415	65.166178	67.547890
0.155000	-160.147433	-5.066637	-73.570646	-0.053600	-0.085628	-0.083825	105.325315	33.393098	-9.567382	6.152928	36.987600	-22.207842	-52.462860	36.016016	13.087620	51.177765	42.903861	50.226256	6.525235	51.209722	36.176045	50.095634	-5.885706	50.339056	47.064242	28.366883	-14.231302	65.116126	67.188205
